<?xml version="1.0" encoding="utf-8"?>
<svg version="1.1" id="Layer_1"
xmlns="http://www.w3.org/2000/svg"
xmlns:xlink="http://www.w3.org/1999/xlink"
width="16px" height="21px"
xml:space="preserve">
<g id="ShapeID_5" transform="matrix(1, 0, 0, 1, -8.25, -5.95)" >
<path 
style="fill:#FFFFFF;fill-opacity:1" d="M19.8 10.05C20 10.45 19.8 10.95 19.05 11.6L17.95 12.35L18.5 12.8L19.85 14.8L21.8 12.8L20.7 12.3C20.55 12.05 20.55 11.65 20.75 11.1C21.15 10.1 21 9.25 20.2 8.45C19.7 7.95 18.9 7.45 17.7 6.95L17.9 9L18.7 9.3L19.8 10.05" />
<path 
style="fill:#FFFFFF;fill-opacity:1" d="M21.65 7.7L19.2 5.95L17.65 6.25L17.65 6.65L17.8 6.65C19.6 7.35 20.7 8.15 21.05 8.95C21.35 9.55 21.45 10.1 21.25 10.7L20.95 11.6C20.9 12 20.95 12.25 21.2 12.35L22 12.55C23.15 10.85 23.05 9.2 21.65 7.7" />
 <clipPath  id="PathID43_ClipPathURL" clip-rule="nonzero">
<path d="M14.8 6.8C11.75 8.1 10.6 9.5 11.4 11.1C11.65 11.6 11.7 11.95 11.45 12.25C11.35 12.45 11 12.65 10.45 12.8L12 13.55L12.75 14.75C13.25 15.6 13.7 16.15 14.1 16.4L16.05 17.3C17.05 17.7 17.75 18.15 18.25 18.65C19.05 19.5 19.9 22 20.85 26.1L23.8 25.55C22.85 20 22.15 16.95 21.65 16.4L20.45 15.55L19.75 15.4C18.85 13.75 18.1 12.8 17.55 12.55C17.05 12.3 16.25 12.15 15.25 12.2L13.9 12.3L13.25 12.2L12.85 11.9L12.75 11.7C12.65 11.4 12.6 11.05 12.75 10.6C12.85 10.3 13.15 9.95 13.65 9.55C14.15 9.2 14.65 8.95 15.15 8.75C15.25 8.55 15.15 7.9 14.8 6.8M14.95 14.85C14.95 14.55 15.05 14.3 15.3 14.1C15.5 13.9 15.75 13.75 16.05 13.75C16.35 13.75 16.6 13.85 16.85 14.1L17.15 14.85L17.05 15.3L19.35 17.05C19.55 16.85 19.8 16.7 20.1 16.7L20.75 17L21 17.65L20.75 18.3L20.1 18.6L19.4 18.3C19.25 18.15 19.15 17.95 19.15 17.65L19.2 17.35L16.9 15.6C16.6 15.8 16.35 15.95 16.05 15.95L15.3 15.65C15.1 15.45 14.95 15.15 14.95 14.85"/>
</clipPath>
<path 
style="clip-path:url(#PathID43_ClipPathURL);fill:#FFFFFF;fill-opacity:1" d="M14.8 6.8C11.75 8.1 10.6 9.5 11.4 11.1C11.65 11.6 11.7 11.95 11.45 12.25C11.35 12.45 11 12.65 10.45 12.8L12 13.55L12.75 14.75C13.25 15.6 13.7 16.15 14.1 16.4L16.05 17.3C17.05 17.7 17.75 18.15 18.25 18.65C19.05 19.5 19.9 22 20.85 26.1L23.8 25.55C22.85 20 22.15 16.95 21.65 16.4L20.45 15.55L19.75 15.4C18.85 13.75 18.1 12.8 17.55 12.55C17.05 12.3 16.25 12.15 15.25 12.2L13.9 12.3L13.25 12.2L12.85 11.9L12.75 11.7C12.65 11.4 12.6 11.05 12.75 10.6C12.85 10.3 13.15 9.95 13.65 9.55C14.15 9.2 14.65 8.95 15.15 8.75C15.25 8.55 15.15 7.9 14.8 6.8" />
<path 
style="fill:#FFFFFF;fill-opacity:1" d="M20.6 17.65C20.6 17.3 20.45 17.1 20.1 17.1C19.75 17.1 19.55 17.25 19.55 17.65C19.55 18 19.7 18.2 20.1 18.2C20.4 18.2 20.6 18.05 20.6 17.65" />
<path 
style="fill:#FFFFFF;fill-opacity:1" d="M10.1 12.6L11 12.2C11.2 12 11.3 11.65 11.1 11.25L10.85 10.4C10.85 9.65 10.95 9.1 11.2 8.75C11.8 7.95 13 7.2 14.7 6.5L14.6 6.2L13.25 6.3C12.25 6.5 11.3 7 10.4 7.8C9.65 8.6 9.3 9.6 9.4 10.85C9.4 11.45 9.55 12 9.75 12.45L10.05 12.6L10.1 12.6" />
<path 
style="fill:#FFFFFF;fill-opacity:1" d="M8.25 25.6L11.5 26C11.75 23.35 12.35 21.05 13.3 19.15L15.05 17.45C14.25 17.15 13.6 16.75 13.15 16.2L12.7 15.5L11.9 16L10.6 17.15C10.35 17.5 9.9 19 9.2 21.7L8.25 25.6" />
</g>
</svg>
